<?xml version="1.0" encoding="UTF-8" standalone="no"?>
<!DOCTYPE svg PUBLIC "-//W3C//DTD SVG 1.1//EN" "http://www.w3.org/Graphics/SVG/1.1/DTD/svg11.dtd">
<svg xmlns="http://www.w3.org/2000/svg" version="1.1" viewBox="400 100 440 520">
<path d="M 693.91 113.59 C 691.27 125.55 688.62 137.50 686.50 149.56 C 684.35 158.00 683.10 166.59 681.09 175.05 C 679.60 181.38 678.84 187.84 677.28 194.16 C 675.35 201.85 674.60 209.72 672.28 217.32 C 672.44 213.35 673.32 209.54 674.03 205.65 C 675.59 199.48 676.40 193.16 677.96 186.98 C 680.00 179.05 680.76 170.89 682.87 162.96 C 685.96 148.91 688.30 134.67 691.53 120.64 C 691.62 119.47 691.54 118.28 691.28 117.07 C 691.87 115.68 692.88 114.66 693.91 113.59 Z" fill="#58a5a8" />
<path d="M 691.28 117.07 C 691.54 118.28 691.62 119.47 691.53 120.64 C 688.30 134.67 685.96 148.91 682.87 162.96 C 680.76 170.89 680.00 179.05 677.96 186.98 C 676.40 193.16 675.59 199.48 674.03 205.65 C 671.83 201.44 674.25 197.37 675.00 193.06 C 676.04 189.25 675.06 185.44 676.38 181.67 C 677.10 179.90 676.19 178.63 675.66 176.97 C 675.24 177.97 674.83 178.97 674.41 179.96 C 673.75 177.79 672.62 175.30 673.19 173.03 C 673.81 170.05 674.92 167.43 674.37 164.32 C 677.13 154.16 681.89 145.08 685.04 135.13 C 686.19 131.76 687.73 128.59 689.07 125.29 C 688.29 125.45 687.52 125.61 686.75 125.77 C 688.32 122.90 689.94 120.07 691.28 117.07 Z" fill="#01a2ac" />
<path d="M 612.90 123.11 C 620.83 128.06 629.15 132.25 637.18 137.03 C 635.86 137.68 634.89 138.09 633.42 138.02 C 633.00 138.15 632.58 138.29 632.16 138.42 C 630.89 137.36 629.62 136.29 628.33 135.24 C 626.95 135.72 625.82 136.24 624.34 135.93 C 624.01 136.13 623.70 136.33 623.38 136.52 C 622.99 135.70 622.60 134.88 622.20 134.05 C 619.99 135.86 618.06 137.65 615.14 138.21 C 611.11 139.52 605.66 140.13 604.00 144.70 C 599.93 146.52 598.14 149.93 595.44 153.22 C 594.04 154.93 593.83 156.89 593.54 159.00 C 590.14 161.12 589.84 164.97 590.94 168.50 C 591.80 170.17 593.00 171.70 594.09 173.22 C 593.02 173.52 591.95 173.82 590.88 174.12 C 594.13 177.60 596.26 181.83 599.47 185.31 C 599.43 186.97 599.20 188.77 599.59 190.39 C 600.56 192.42 602.17 194.19 603.55 195.95 C 603.37 198.00 603.19 200.04 603.02 202.09 C 603.55 201.10 604.08 200.12 604.61 199.13 C 605.16 200.79 605.73 202.45 606.35 204.09 C 606.67 203.23 607.00 202.36 607.32 201.50 C 609.11 201.95 610.90 202.39 612.69 202.82 C 613.19 203.50 613.69 204.18 614.19 204.86 C 613.14 206.64 612.10 208.40 611.16 210.24 C 608.22 210.62 607.50 212.46 608.40 215.13 C 604.37 222.17 600.39 229.23 596.25 236.20 C 596.01 234.56 595.59 232.87 595.62 231.22 C 596.13 230.02 596.93 228.94 597.63 227.85 C 596.84 225.74 596.72 223.91 594.32 223.06 C 594.93 221.06 595.52 219.80 594.61 217.78 C 594.63 217.06 594.66 216.33 594.69 215.61 C 594.16 215.52 593.63 215.43 593.10 215.34 C 590.92 208.18 589.95 200.75 587.36 193.68 C 587.46 192.54 587.56 191.40 587.67 190.27 C 586.81 189.86 585.96 189.46 585.10 189.06 C 584.50 189.60 583.89 190.15 583.28 190.70 C 583.12 189.52 582.95 188.35 582.79 187.17 C 581.46 188.29 580.13 189.39 578.80 190.49 C 577.55 189.51 576.30 188.54 575.02 187.60 C 575.10 189.69 575.31 191.72 575.67 193.77 C 574.19 194.62 572.72 195.47 571.23 196.29 C 570.17 196.02 569.11 195.75 568.06 195.49 C 568.17 193.81 568.27 192.14 568.38 190.47 C 567.93 190.14 567.49 189.80 567.04 189.47 C 565.39 187.00 564.09 187.48 561.39 187.57 C 561.68 184.10 561.52 180.64 561.32 177.16 C 560.77 176.66 560.22 176.16 559.67 175.66 C 561.01 173.11 561.60 171.08 561.50 168.15 C 562.48 167.25 563.47 166.35 564.46 165.46 C 564.13 165.05 563.79 164.64 563.46 164.24 C 567.98 160.46 571.28 155.47 576.16 152.24 C 577.69 151.23 578.12 149.57 579.21 148.11 C 581.11 146.97 583.40 146.52 585.30 145.39 C 586.67 143.69 587.55 141.54 589.15 140.13 C 590.73 138.78 592.62 137.73 594.39 136.64 C 594.49 135.56 594.59 134.47 594.68 133.38 C 600.78 130.01 606.61 126.09 612.90 123.11 Z" fill="#01d1d3" />
<path d="M 689.07 125.29 C 687.73 128.59 686.19 131.76 685.04 135.13 C 681.89 145.08 677.13 154.16 674.37 164.32 C 670.88 172.96 667.06 181.61 664.47 190.58 C 659.89 201.16 656.13 212.07 651.72 222.73 C 650.86 219.33 652.55 216.91 653.26 213.73 C 653.05 212.19 652.22 210.68 651.66 209.24 C 649.87 209.11 648.07 208.97 646.27 208.84 C 646.78 208.21 647.30 207.60 647.81 206.97 C 646.35 205.98 644.93 204.94 643.51 203.88 C 648.70 194.77 653.89 185.66 658.93 176.47 C 661.71 173.65 663.25 171.38 663.84 167.37 C 665.04 164.96 666.34 162.63 667.74 160.33 C 671.35 156.11 674.63 150.96 676.03 145.54 L 676.06 145.48 C 678.83 142.58 680.07 140.44 680.87 136.47 C 682.01 134.20 683.26 131.99 684.65 129.85 C 685.73 129.52 686.12 128.81 685.83 127.71 C 686.13 127.06 686.43 126.42 686.75 125.77 C 687.52 125.61 688.29 125.45 689.07 125.29 Z" fill="#01d9d9" />
<path d="M 685.83 127.71 C 686.12 128.81 685.73 129.52 684.65 129.85 C 684.49 128.83 684.88 128.12 685.83 127.71 Z" fill="#2ba3a4" />
<path d="M 594.68 133.38 C 594.59 134.47 594.49 135.56 594.39 136.64 C 592.62 137.73 590.73 138.78 589.15 140.13 C 587.55 141.54 586.67 143.69 585.30 145.39 C 583.40 146.52 581.11 146.97 579.21 148.11 C 578.12 149.57 577.69 151.23 576.16 152.24 C 571.28 155.47 567.98 160.46 563.46 164.24 C 563.79 164.64 564.13 165.05 564.46 165.46 C 563.47 166.35 562.48 167.25 561.50 168.15 C 561.60 171.08 561.01 173.11 559.67 175.66 C 560.22 176.16 560.77 176.66 561.32 177.16 C 561.52 180.64 561.68 184.10 561.39 187.57 C 564.09 187.48 565.39 187.00 567.04 189.47 C 567.49 189.80 567.93 190.14 568.38 190.47 C 568.27 192.14 568.17 193.81 568.06 195.49 C 569.11 195.75 570.17 196.02 571.23 196.29 C 555.77 204.93 540.44 213.82 525.03 222.54 C 523.55 220.68 521.97 218.91 520.34 217.17 C 519.79 217.92 519.24 218.67 518.69 219.42 C 517.90 218.97 517.13 218.47 516.34 218.02 C 515.86 220.31 516.56 224.02 514.04 225.13 C 512.08 222.47 511.58 219.55 510.91 216.41 C 510.12 216.89 509.32 217.37 508.53 217.85 C 508.82 216.63 509.12 215.41 509.41 214.19 C 508.72 214.06 508.03 213.92 507.35 213.78 C 507.82 213.19 508.29 212.59 508.76 211.99 C 507.95 211.77 507.15 211.55 506.34 211.33 C 506.35 210.44 506.36 209.55 506.37 208.67 C 505.76 207.91 505.15 207.16 504.53 206.40 C 505.32 205.74 506.11 205.08 506.90 204.41 C 506.11 204.20 505.33 203.98 504.55 203.76 C 504.87 202.49 505.19 201.23 505.55 199.97 C 508.50 198.38 506.42 195.48 508.28 193.28 C 513.17 187.87 518.91 183.15 523.74 177.68 C 525.14 176.12 526.88 175.48 528.71 174.52 C 528.11 173.86 527.51 173.19 526.91 172.53 C 541.96 163.77 556.96 154.91 572.19 146.46 L 572.60 146.22 C 573.89 145.43 575.16 144.62 576.47 143.86 C 580.07 143.27 581.65 142.20 584.11 139.60 C 587.59 137.45 591.13 135.41 594.68 133.38 Z" fill="#01c8cd" />
<path d="M 622.20 134.05 C 622.60 134.88 622.99 135.70 623.38 136.52 C 623.70 136.33 624.01 136.13 624.34 135.93 C 625.82 136.24 626.95 135.72 628.33 135.24 C 629.62 136.29 630.89 137.36 632.16 138.42 C 632.58 138.29 633.00 138.15 633.42 138.02 C 634.89 138.09 635.86 137.68 637.18 137.03 C 640.17 138.67 643.12 140.40 646.17 141.92 C 646.50 143.63 647.13 144.78 648.38 146.00 C 641.94 156.29 636.10 166.90 629.94 177.36 C 627.60 179.39 626.81 180.64 626.24 183.74 C 622.45 190.89 618.22 197.83 614.19 204.86 C 613.69 204.18 613.19 203.50 612.69 202.82 C 610.90 202.39 609.11 201.95 607.32 201.50 C 607.00 202.36 606.67 203.23 606.35 204.09 C 605.73 202.45 605.16 200.79 604.61 199.13 C 604.08 200.12 603.55 201.10 603.02 202.09 C 603.19 200.04 603.37 198.00 603.55 195.95 C 602.17 194.19 600.56 192.42 599.59 190.39 C 599.20 188.77 599.43 186.97 599.47 185.31 C 596.26 181.83 594.13 177.60 590.88 174.12 C 591.95 173.82 593.02 173.52 594.09 173.22 C 593.00 171.70 591.80 170.17 590.94 168.50 C 589.84 164.97 590.14 161.12 593.54 159.00 C 593.83 156.89 594.04 154.93 595.44 153.22 C 598.14 149.93 599.93 146.52 604.00 144.70 C 605.66 140.13 611.11 139.52 615.14 138.21 C 618.06 137.65 619.99 135.86 622.20 134.05 Z" fill="#01dad9" />
<path d="M 680.87 136.47 C 680.07 140.44 678.83 142.58 676.06 145.48 C 677.39 142.31 679.04 139.37 680.87 136.47 Z" fill="#42bcbe" />
<path d="M 584.11 139.60 C 581.65 142.20 580.07 143.27 576.47 143.86 C 578.94 142.27 581.47 140.88 584.11 139.60 Z" fill="#34b3b5" />
<path d="M 646.17 141.92 C 648.29 142.80 650.16 143.48 648.38 146.00 C 647.13 144.78 646.50 143.63 646.17 141.92 Z" fill="#35b2af" />
<path d="M 572.60 146.22 L 572.19 146.46 L 572.60 146.22 Z" fill="#52a9a7" />
<path d="M 676.03 145.54 C 674.63 150.96 671.35 156.11 667.74 160.33 C 670.06 155.18 672.95 150.27 676.03 145.54 Z" fill="#3cb6b5" />
<path d="M 674.37 164.32 C 674.92 167.43 673.81 170.05 673.19 173.03 C 672.62 175.30 673.75 177.79 674.41 179.96 C 674.83 178.97 675.24 177.97 675.66 176.97 C 676.19 178.63 677.10 179.90 676.38 181.67 C 675.06 185.44 676.04 189.25 675.00 193.06 C 674.25 197.37 671.83 201.44 674.03 205.65 C 673.32 209.54 672.44 213.35 672.28 217.32 C 669.69 229.90 666.79 242.40 664.36 255.01 C 663.97 253.59 663.53 252.20 663.20 250.77 C 662.58 247.98 663.69 244.83 662.98 242.06 C 662.63 240.65 660.62 240.20 659.49 239.52 C 659.86 239.16 660.23 238.79 660.61 238.42 C 659.46 235.98 657.99 233.68 656.98 231.19 C 656.45 228.72 656.34 226.26 655.40 223.88 C 655.80 223.34 656.20 222.81 656.61 222.27 C 655.81 222.03 655.01 221.78 654.21 221.54 C 657.08 214.77 658.97 207.67 661.81 200.88 C 663.11 197.41 664.82 194.43 664.47 190.58 C 667.06 181.61 670.88 172.96 674.37 164.32 Z" fill="#0196a1" />
<path d="M 663.84 167.37 C 663.25 171.38 661.71 173.65 658.93 176.47 C 660.37 173.28 661.98 170.33 663.84 167.37 Z" fill="#34bcbb" />
<path d="M 706.86 170.42 C 708.81 171.44 710.68 172.60 712.54 173.76 C 710.84 173.24 709.12 172.76 707.40 172.29 C 706.84 175.11 706.25 177.93 705.69 180.76 C 703.66 189.15 701.75 197.58 699.84 206.01 C 699.59 207.68 698.86 209.88 699.46 211.52 C 703.02 214.32 707.31 215.75 710.54 219.08 C 706.11 216.97 701.98 214.36 697.70 211.99 C 699.14 204.55 700.67 197.11 702.61 189.78 C 704.23 183.37 705.19 176.81 706.86 170.42 Z" fill="#44a5aa" />
<path d="M 707.40 172.29 C 709.12 172.76 710.84 173.24 712.54 173.76 C 749.83 194.85 787.21 215.78 824.35 237.13 C 825.64 242.14 824.89 246.92 824.95 252.00 C 824.97 255.81 824.92 259.62 824.88 263.43 C 824.35 261.30 823.84 259.21 823.88 257.00 C 823.94 251.63 823.69 246.27 823.64 240.91 C 822.71 241.61 821.81 242.28 820.98 243.05 C 820.54 244.23 821.41 245.71 820.91 246.90 C 820.01 249.19 819.00 251.54 817.62 253.58 C 813.92 255.51 808.59 253.83 804.65 253.32 C 803.07 251.76 801.88 249.77 800.53 248.02 C 800.20 248.98 799.86 249.94 799.53 250.90 C 799.21 250.57 798.90 250.24 798.58 249.91 C 798.57 249.13 798.55 248.34 798.54 247.56 C 797.91 247.17 797.27 246.77 796.64 246.38 C 796.00 245.26 795.42 244.04 794.63 243.02 C 792.74 241.33 789.91 240.54 787.61 239.55 C 787.61 238.79 787.60 238.03 787.59 237.27 C 785.65 236.20 782.99 235.30 781.57 233.54 C 781.47 232.45 781.53 231.35 781.54 230.26 C 780.45 230.42 779.35 230.57 778.26 230.73 C 777.31 230.01 776.36 229.30 775.40 228.58 C 774.92 229.02 774.44 229.46 773.96 229.91 C 773.04 228.93 772.12 227.96 771.20 226.99 C 770.44 227.61 769.68 228.24 768.92 228.86 C 766.94 222.98 760.98 222.29 757.38 217.62 C 757.00 217.96 756.61 218.30 756.22 218.64 C 755.66 217.91 755.05 217.22 754.48 216.50 C 754.09 216.84 753.69 217.19 753.29 217.54 C 752.79 216.65 752.30 215.77 751.79 214.88 C 748.39 214.24 746.39 213.52 744.97 210.14 C 741.49 208.83 738.61 208.49 734.93 208.79 C 734.18 206.07 732.82 206.37 730.39 205.61 C 730.89 205.04 731.39 204.47 731.88 203.90 C 729.59 202.86 727.19 202.12 724.86 201.19 C 722.98 200.23 721.59 198.36 719.81 197.21 C 718.50 196.50 716.93 196.14 715.70 195.31 C 714.30 193.30 713.58 191.09 711.78 189.33 C 710.28 187.90 710.08 186.11 709.43 184.22 C 708.37 183.89 707.30 183.57 706.22 183.26 C 706.04 182.42 705.87 181.59 705.69 180.76 C 706.25 177.93 706.84 175.11 707.40 172.29 Z" fill="#01c5cb" />
<path d="M 526.91 172.53 C 527.51 173.19 528.11 173.86 528.71 174.52 C 526.88 175.48 525.14 176.12 523.74 177.68 C 518.91 183.15 513.17 187.87 508.28 193.28 C 506.42 195.48 508.50 198.38 505.55 199.97 C 505.19 201.23 504.87 202.49 504.55 203.76 C 505.33 203.98 506.11 204.20 506.90 204.41 C 506.11 205.08 505.32 205.74 504.53 206.40 C 505.15 207.16 505.76 207.91 506.37 208.67 C 506.36 209.55 506.35 210.44 506.34 211.33 C 507.15 211.55 507.95 211.77 508.76 211.99 C 508.29 212.59 507.82 213.19 507.35 213.78 C 508.03 213.92 508.72 214.06 509.41 214.19 C 509.12 215.41 508.82 216.63 508.53 217.85 C 509.32 217.37 510.12 216.89 510.91 216.41 C 511.58 219.55 512.08 222.47 514.04 225.13 C 516.56 224.02 515.86 220.31 516.34 218.02 C 517.13 218.47 517.90 218.97 518.69 219.42 C 519.24 218.67 519.79 217.92 520.34 217.17 C 521.97 218.91 523.55 220.68 525.03 222.54 C 504.86 234.02 484.64 245.39 464.41 256.78 C 463.07 256.07 461.72 255.37 460.37 254.66 C 460.99 253.62 461.61 252.59 462.22 251.55 C 460.96 250.77 459.70 250.20 458.29 249.72 C 458.10 251.81 457.91 253.89 457.73 255.98 C 456.95 255.31 456.16 254.63 455.37 253.95 C 455.70 253.12 456.02 252.28 456.35 251.45 C 455.47 249.67 454.78 247.91 454.38 245.96 C 453.43 245.02 452.31 244.62 452.38 243.05 C 452.25 239.33 454.21 236.93 455.56 233.75 C 455.86 231.62 454.87 229.21 454.42 227.14 C 456.95 224.43 459.63 221.87 462.30 219.30 C 464.83 216.97 465.79 213.68 468.38 211.36 C 468.01 210.91 467.63 210.47 467.26 210.02 C 468.47 209.48 469.68 208.94 470.89 208.41 C 469.69 207.89 468.49 207.37 467.27 206.90 C 487.23 195.58 507.00 183.95 526.91 172.53 Z" fill="#01bec6" />
<path d="M 629.94 177.36 C 628.84 179.59 627.62 181.67 626.24 183.74 C 626.81 180.64 627.60 179.39 629.94 177.36 Z" fill="#36b9ba" />
<path d="M 705.69 180.76 C 705.87 181.59 706.04 182.42 706.22 183.26 C 707.30 183.57 708.37 183.89 709.43 184.22 C 710.08 186.11 710.28 187.90 711.78 189.33 C 713.58 191.09 714.30 193.30 715.70 195.31 C 716.93 196.14 718.50 196.50 719.81 197.21 C 721.59 198.36 722.98 200.23 724.86 201.19 C 727.19 202.12 729.59 202.86 731.88 203.90 C 731.39 204.47 730.89 205.04 730.39 205.61 C 732.82 206.37 734.18 206.07 734.93 208.79 C 738.61 208.49 741.49 208.83 744.97 210.14 C 746.39 213.52 748.39 214.24 751.79 214.88 C 752.30 215.77 752.79 216.65 753.29 217.54 C 753.69 217.19 754.09 216.84 754.48 216.50 C 755.05 217.22 755.66 217.91 756.22 218.64 C 756.61 218.30 757.00 217.96 757.38 217.62 C 760.98 222.29 766.94 222.98 768.92 228.86 C 769.68 228.24 770.44 227.61 771.20 226.99 C 772.12 227.96 773.04 228.93 773.96 229.91 C 774.44 229.46 774.92 229.02 775.40 228.58 C 776.36 229.30 777.31 230.01 778.26 230.73 C 779.35 230.57 780.45 230.42 781.54 230.26 C 781.53 231.35 781.47 232.45 781.57 233.54 C 782.99 235.30 785.65 236.20 787.59 237.27 C 787.60 238.03 787.61 238.79 787.61 239.55 C 789.91 240.54 792.74 241.33 794.63 243.02 C 795.42 244.04 796.00 245.26 796.64 246.38 C 797.27 246.77 797.91 247.17 798.54 247.56 C 798.55 248.34 798.57 249.13 798.58 249.91 C 798.90 250.24 799.21 250.57 799.53 250.90 C 799.86 249.94 800.20 248.98 800.53 248.02 C 801.88 249.77 803.07 251.76 804.65 253.32 C 808.59 253.83 813.92 255.51 817.62 253.58 C 819.00 251.54 820.01 249.19 820.91 246.90 C 821.41 245.71 820.54 244.23 820.98 243.05 C 821.81 242.28 822.71 241.61 823.64 240.91 C 823.69 246.27 823.94 251.63 823.88 257.00 C 823.84 259.21 824.35 261.30 824.88 263.43 C 825.59 269.32 825.05 274.99 825.18 281.00 C 825.36 294.81 824.84 308.60 824.79 322.40 C 823.51 317.26 824.02 312.26 823.78 307.03 C 821.73 306.59 819.73 306.33 817.63 306.22 C 818.69 307.18 819.77 308.12 820.86 309.06 C 819.27 308.85 817.68 308.65 816.09 308.46 C 816.23 309.58 816.36 310.71 816.50 311.83 C 815.75 312.17 815.00 312.51 814.24 312.84 C 814.35 311.92 814.45 310.99 814.56 310.06 C 814.02 309.64 813.48 309.21 812.95 308.78 C 811.75 310.16 810.54 311.53 809.34 312.91 C 808.70 311.31 808.07 309.72 807.42 308.12 C 807.14 309.05 806.85 309.97 806.57 310.89 C 805.84 309.43 805.21 307.81 804.20 306.52 C 803.22 305.92 801.93 305.77 800.82 305.48 C 799.96 301.49 796.87 299.36 795.26 295.79 C 793.75 292.75 792.73 289.74 792.38 286.35 C 792.25 283.87 790.68 282.59 789.22 280.81 C 789.07 278.44 788.86 276.08 788.47 273.74 C 787.62 282.49 788.24 291.36 787.51 300.11 C 787.16 297.07 787.04 294.06 787.10 291.00 C 787.23 284.66 786.79 278.34 786.83 272.00 C 786.83 268.47 787.01 265.19 786.13 261.73 C 785.47 260.06 784.01 259.98 782.58 259.19 C 758.63 245.74 734.53 232.41 710.54 219.08 C 707.31 215.75 703.02 214.32 699.46 211.52 C 698.86 209.88 699.59 207.68 699.84 206.01 C 701.75 197.58 703.66 189.15 705.69 180.76 Z" fill="#01bac1" />
<path d="M 582.79 187.17 C 582.95 188.35 583.12 189.52 583.28 190.70 C 583.89 190.15 584.50 189.60 585.10 189.06 C 585.96 189.46 586.81 189.86 587.67 190.27 C 587.56 191.40 587.46 192.54 587.36 193.68 C 589.95 200.75 590.92 208.18 593.10 215.34 C 593.63 215.43 594.16 215.52 594.69 215.61 C 594.66 216.33 594.63 217.06 594.61 217.78 C 595.52 219.80 594.93 221.06 594.32 223.06 C 596.72 223.91 596.84 225.74 597.63 227.85 C 596.93 228.94 596.13 230.02 595.62 231.22 C 595.59 232.87 596.01 234.56 596.25 236.20 C 590.46 245.83 584.98 255.61 579.34 265.33 C 578.87 264.52 578.40 263.71 577.93 262.90 C 579.08 260.30 580.38 257.91 581.98 255.57 C 581.45 255.54 580.92 255.51 580.39 255.48 C 580.10 253.40 579.93 251.32 580.03 249.22 C 579.32 247.36 578.58 245.51 577.85 243.66 C 578.60 243.57 579.36 243.47 580.11 243.37 C 580.50 238.04 577.80 233.45 578.26 228.10 C 578.53 225.85 577.77 224.22 576.74 222.28 C 577.06 221.81 577.37 221.34 577.68 220.87 C 577.58 218.97 577.48 217.06 577.42 215.15 C 576.04 215.98 575.14 216.65 573.43 216.40 C 576.08 207.81 579.18 199.38 581.50 190.68 C 579.53 191.67 577.59 192.70 575.67 193.77 C 575.31 191.72 575.10 189.69 575.02 187.60 C 576.30 188.54 577.55 189.51 578.80 190.49 C 580.13 189.39 581.46 188.29 582.79 187.17 Z" fill="#01c9cd" />
<path d="M 664.47 190.58 C 664.82 194.43 663.11 197.41 661.81 200.88 C 658.97 207.67 657.08 214.77 654.21 221.54 C 655.01 221.78 655.81 222.03 656.61 222.27 C 656.20 222.81 655.80 223.34 655.40 223.88 C 656.34 226.26 656.45 228.72 656.98 231.19 C 657.99 233.68 659.46 235.98 660.61 238.42 C 660.23 238.79 659.86 239.16 659.49 239.52 C 660.62 240.20 662.63 240.65 662.98 242.06 C 663.69 244.83 662.58 247.98 663.20 250.77 C 663.53 252.20 663.97 253.59 664.36 255.01 C 662.75 262.55 661.11 270.07 659.57 277.62 C 657.10 287.63 655.62 297.79 652.68 307.69 C 651.66 310.13 651.14 312.22 651.02 314.88 C 661.10 315.39 671.18 314.86 681.26 315.22 C 671.31 316.53 661.00 315.58 651.00 316.54 C 657.97 317.33 664.75 317.15 671.76 317.33 C 673.19 320.30 674.60 323.22 676.67 325.81 C 675.59 326.58 674.51 327.36 673.43 328.13 C 673.65 328.83 673.89 329.57 674.10 330.28 C 674.07 331.41 674.09 332.52 674.14 333.65 C 673.76 334.18 673.38 334.71 673.00 335.23 C 674.65 336.36 676.31 337.49 677.96 338.63 C 676.80 339.82 675.54 340.89 674.22 341.90 C 675.39 341.97 676.55 342.05 677.71 342.14 C 677.11 342.93 676.51 343.71 675.90 344.50 C 676.98 344.46 678.07 344.41 679.15 344.37 C 677.33 345.77 675.52 347.16 673.70 348.55 C 675.40 348.81 677.09 349.07 678.78 349.34 C 678.87 350.15 678.96 350.95 679.05 351.76 C 678.20 351.15 677.36 350.54 676.51 349.92 C 676.56 350.85 676.62 351.77 676.67 352.70 C 675.50 353.61 674.34 354.53 673.18 355.44 C 674.85 356.19 676.52 356.94 678.20 357.67 C 676.50 358.93 674.99 360.28 673.63 361.91 C 675.01 362.82 676.38 363.74 677.76 364.65 C 676.37 365.76 675.00 366.88 673.61 368.00 C 674.88 369.16 676.14 370.34 677.42 371.50 C 677.06 372.31 676.70 373.12 676.35 373.93 C 677.66 374.71 678.99 375.47 680.34 376.19 C 670.07 392.04 659.69 407.82 649.16 423.49 C 647.18 420.30 648.70 417.73 648.63 414.37 C 647.92 413.09 646.97 411.90 646.10 410.73 C 646.88 408.94 647.67 407.15 648.48 405.38 C 646.67 404.90 645.06 404.33 643.51 403.24 C 644.55 402.29 645.59 401.34 646.63 400.39 C 645.49 398.36 644.33 396.35 643.17 394.34 C 643.89 394.18 644.62 394.03 645.35 393.88 C 644.65 391.82 644.16 389.76 643.80 387.61 C 643.20 387.54 642.59 387.47 641.98 387.40 C 643.05 386.11 644.13 384.84 645.19 383.54 C 644.31 383.32 643.43 383.09 642.56 382.87 C 643.78 380.57 643.92 378.24 644.02 375.68 C 648.49 366.91 653.59 358.44 658.70 350.03 C 656.82 349.36 655.01 348.98 653.00 349.00 C 638.36 348.98 623.60 349.03 608.96 348.97 C 607.38 349.05 606.83 348.33 605.77 347.35 C 610.79 335.01 615.25 322.48 619.82 309.97 C 625.22 296.14 630.04 282.09 635.16 268.15 C 639.88 255.67 644.08 243.00 648.15 230.30 C 649.55 227.86 650.87 225.42 651.72 222.73 C 656.13 212.07 659.89 201.16 664.47 190.58 Z" fill="#018894" />
<path d="M 643.51 203.88 C 644.93 204.94 646.35 205.98 647.81 206.97 C 647.30 207.60 646.78 208.21 646.27 208.84 C 648.07 208.97 649.87 209.11 651.66 209.24 C 652.22 210.68 653.05 212.19 653.26 213.73 C 652.55 216.91 650.86 219.33 651.72 222.73 C 650.87 225.42 649.55 227.86 648.15 230.30 C 639.82 245.98 633.21 262.77 626.43 279.34 C 625.93 278.52 625.42 277.69 624.91 276.86 C 625.72 274.72 626.77 272.39 626.99 270.10 C 625.59 267.69 623.41 265.93 621.28 264.20 C 622.51 262.77 623.81 261.59 625.32 260.46 C 624.41 258.77 623.50 257.08 622.58 255.39 C 621.49 255.18 620.39 254.96 619.30 254.75 C 619.81 254.27 620.31 253.79 620.82 253.31 C 620.04 252.53 619.26 251.74 618.48 250.96 C 618.23 250.27 617.98 249.59 617.73 248.91 C 619.14 246.45 620.54 244.00 622.03 241.59 C 625.01 238.99 625.96 237.20 626.84 233.33 C 628.18 230.69 629.71 228.17 631.31 225.68 L 631.58 225.20 C 635.45 218.04 639.44 210.93 643.51 203.88 Z" fill="#01cdcf" />
<path d="M 467.27 206.90 C 468.49 207.37 469.69 207.89 470.89 208.41 C 469.68 208.94 468.47 209.48 467.26 210.02 C 467.63 210.47 468.01 210.91 468.38 211.36 C 465.79 213.68 464.83 216.97 462.30 219.30 C 459.63 221.87 456.95 224.43 454.42 227.14 C 454.87 229.21 455.86 231.62 455.56 233.75 C 454.21 236.93 452.25 239.33 452.38 243.05 C 452.31 244.62 453.43 245.02 454.38 245.96 C 454.78 247.91 455.47 249.67 456.35 251.45 C 456.02 252.28 455.70 253.12 455.37 253.95 C 456.16 254.63 456.95 255.31 457.73 255.98 C 457.91 253.89 458.10 251.81 458.29 249.72 C 459.70 250.20 460.96 250.77 462.22 251.55 C 461.61 252.59 460.99 253.62 460.37 254.66 C 461.72 255.37 463.07 256.07 464.41 256.78 C 461.49 258.45 458.57 260.12 455.60 261.71 C 455.64 321.48 455.61 381.24 455.62 441.00 C 455.64 444.86 455.52 448.76 455.78 452.61 C 455.48 451.48 455.44 450.24 455.40 449.08 C 455.54 436.22 455.91 423.26 455.04 410.42 C 455.80 403.02 455.28 395.45 455.39 388.00 C 455.51 371.00 455.12 354.00 455.24 337.00 C 455.27 334.78 455.10 332.71 454.34 330.61 C 453.58 338.02 454.20 345.56 453.97 353.00 C 453.74 359.39 454.04 365.84 453.44 372.21 C 452.65 367.43 453.10 362.82 452.86 358.00 C 452.67 354.32 452.75 350.66 452.87 346.98 C 452.14 346.62 451.38 346.29 450.69 345.85 C 450.43 344.12 450.54 342.29 450.58 340.54 C 449.86 339.97 449.15 339.40 448.44 338.84 C 448.73 338.42 449.03 338.01 449.32 337.59 C 449.03 337.10 448.73 336.61 448.44 336.12 C 449.21 335.53 449.97 334.95 450.73 334.36 C 450.05 334.13 449.37 333.89 448.69 333.66 C 448.63 328.26 444.74 325.85 442.92 321.04 C 441.89 318.90 444.15 316.24 442.80 314.16 C 441.23 311.11 439.37 308.27 438.18 305.02 C 438.66 304.45 439.14 303.87 439.61 303.30 C 438.92 303.08 438.23 302.86 437.54 302.65 C 436.86 299.94 436.81 297.21 436.54 294.45 C 435.62 293.73 434.52 293.19 433.68 292.38 C 433.16 290.61 434.06 288.44 434.03 286.62 C 433.73 284.80 432.92 283.06 432.59 281.23 C 432.31 279.39 432.49 277.47 432.14 275.65 C 431.39 274.79 430.46 274.11 429.70 273.27 C 429.32 270.79 430.03 268.37 429.14 265.90 C 428.04 262.10 429.13 258.81 429.94 255.13 C 428.74 254.75 427.54 254.37 426.34 254.01 C 426.63 253.51 426.93 253.02 427.22 252.53 C 426.84 249.91 427.00 247.29 426.72 244.67 C 426.29 241.23 427.17 237.98 426.19 234.56 C 424.39 234.46 422.71 234.17 420.96 233.71 C 436.30 224.61 451.89 215.93 467.27 206.90 Z" fill="#01b4bd" />
<path d="M 611.16 210.24 C 610.43 212.06 609.57 213.57 608.40 215.13 C 607.50 212.46 608.22 210.62 611.16 210.24 Z" fill="#33b7b4" />
<path d="M 577.42 215.15 C 577.48 217.06 577.58 218.97 577.68 220.87 C 577.37 221.34 577.06 221.81 576.74 222.28 C 577.77 224.22 578.53 225.85 578.26 228.10 C 577.80 233.45 580.50 238.04 580.11 243.37 C 579.36 243.47 578.60 243.57 577.85 243.66 C 578.58 245.51 579.32 247.36 580.03 249.22 C 579.93 251.32 580.10 253.40 580.39 255.48 C 580.92 255.51 581.45 255.54 581.98 255.57 C 580.38 257.91 579.08 260.30 577.93 262.90 C 578.40 263.71 578.87 264.52 579.34 265.33 C 565.72 288.99 551.61 312.29 537.86 335.86 C 537.12 336.80 536.27 337.66 535.31 338.43 C 536.04 334.44 537.67 330.82 538.99 327.02 C 541.08 320.56 542.83 313.98 545.05 307.57 C 545.79 306.20 546.57 304.95 547.09 303.47 C 552.38 285.81 557.99 268.14 563.39 250.51 C 564.62 247.02 565.42 243.50 566.00 239.85 C 568.20 231.94 570.89 224.20 573.43 216.40 C 575.14 216.65 576.04 215.98 577.42 215.15 Z" fill="#01c1c6" />
<path d="M 631.58 225.20 L 631.31 225.68 L 631.58 225.20 Z" fill="#58aead" />
<path d="M 648.15 230.30 C 644.08 243.00 639.88 255.67 635.16 268.15 C 630.04 282.09 625.22 296.14 619.82 309.97 C 615.25 322.48 610.79 335.01 605.77 347.35 C 605.40 348.30 605.04 349.26 604.70 350.22 C 617.80 350.35 630.90 350.23 644.00 350.28 C 648.89 350.22 653.84 350.47 658.70 350.03 C 653.59 358.44 648.49 366.91 644.02 375.68 C 636.73 388.29 629.67 401.06 623.04 414.03 C 615.01 428.63 606.67 443.51 599.01 458.30 C 601.72 450.53 604.70 442.77 608.44 435.42 C 618.93 410.79 630.11 386.44 640.94 361.95 C 641.42 360.75 641.85 359.52 642.27 358.30 C 625.78 358.19 609.27 358.26 592.78 358.25 C 594.63 353.08 597.21 348.27 599.32 343.21 C 603.17 334.83 606.53 326.26 610.19 317.80 C 615.31 304.86 621.27 292.26 626.43 279.34 C 633.21 262.77 639.82 245.98 648.15 230.30 Z" fill="#ffffff" />
<path d="M 420.96 233.71 C 422.71 234.17 424.39 234.46 426.19 234.56 C 427.17 237.98 426.29 241.23 426.72 244.67 C 427.00 247.29 426.84 249.91 427.22 252.53 C 426.93 253.02 426.63 253.51 426.34 254.01 C 427.54 254.37 428.74 254.75 429.94 255.13 C 429.13 258.81 428.04 262.10 429.14 265.90 C 430.03 268.37 429.32 270.79 429.70 273.27 C 430.46 274.11 431.39 274.79 432.14 275.65 C 432.49 277.47 432.31 279.39 432.59 281.23 C 432.92 283.06 433.73 284.80 434.03 286.62 C 434.06 288.44 433.16 290.61 433.68 292.38 C 434.52 293.19 435.62 293.73 436.54 294.45 C 436.81 297.21 436.86 299.94 437.54 302.65 C 438.23 302.86 438.92 303.08 439.61 303.30 C 439.14 303.87 438.66 304.45 438.18 305.02 C 439.37 308.27 441.23 311.11 442.80 314.16 C 444.15 316.24 441.89 318.90 442.92 321.04 C 444.74 325.85 448.63 328.26 448.69 333.66 C 449.37 333.89 450.05 334.13 450.73 334.36 C 449.97 334.95 449.21 335.53 448.44 336.12 C 448.73 336.61 449.03 337.10 449.32 337.59 C 449.03 338.01 448.73 338.42 448.44 338.84 C 449.15 339.40 449.86 339.97 450.58 340.54 C 450.54 342.29 450.43 344.12 450.69 345.85 C 451.38 346.29 452.14 346.62 452.87 346.98 C 452.75 350.66 452.67 354.32 452.86 358.00 C 453.10 362.82 452.65 367.43 453.44 372.21 C 454.04 365.84 453.74 359.39 453.97 353.00 C 454.20 345.56 453.58 338.02 454.34 330.61 C 455.10 332.71 455.27 334.78 455.24 337.00 C 455.12 354.00 455.51 371.00 455.39 388.00 C 455.28 395.45 455.80 403.02 455.04 410.42 C 452.88 416.34 454.60 422.90 453.47 429.21 C 452.97 426.17 452.78 423.11 452.73 420.03 C 452.25 421.02 451.76 422.01 451.28 423.00 C 450.98 421.54 450.67 420.08 450.35 418.63 C 449.11 417.85 447.69 417.11 446.66 416.06 C 446.82 415.43 446.99 414.79 447.19 414.16 C 446.63 413.29 446.08 412.41 445.53 411.54 C 444.42 411.40 443.32 411.25 442.22 411.11 C 442.75 410.05 443.29 408.99 443.84 407.93 C 442.30 406.21 440.43 404.93 438.71 403.42 C 439.23 401.25 439.80 399.40 439.36 397.13 C 438.57 397.64 437.79 398.14 437.01 398.65 C 436.90 398.09 436.80 397.53 436.70 396.96 C 437.02 395.94 437.47 394.84 437.55 393.77 C 437.07 392.15 436.15 390.65 435.41 389.14 C 435.80 387.80 436.19 386.46 436.47 385.09 C 435.70 385.59 434.94 386.10 434.19 386.61 C 433.04 379.96 429.53 374.35 429.44 367.37 C 428.75 367.16 428.07 366.94 427.39 366.73 C 427.70 366.34 428.01 365.94 428.33 365.54 C 427.58 361.33 426.31 356.89 426.57 352.59 C 425.00 352.30 423.43 352.02 421.87 351.73 C 422.37 350.32 422.86 348.91 423.37 347.50 C 422.39 344.95 421.15 342.44 420.42 339.80 C 419.79 336.77 420.87 333.29 420.68 330.18 C 420.28 328.33 419.04 326.60 418.15 324.94 C 418.35 328.03 418.46 330.99 417.71 334.03 C 417.33 333.11 416.95 332.20 416.57 331.28 C 416.10 332.18 415.63 333.08 415.15 333.98 C 415.15 329.79 415.19 325.68 414.19 321.58 C 414.03 319.39 413.92 317.20 413.90 315.00 C 413.91 293.67 413.88 272.33 413.88 251.00 C 413.92 246.27 413.38 241.80 414.68 237.17 C 416.77 236.00 418.84 234.82 420.96 233.71 Z" fill="#01aab4" />
<path d="M 626.84 233.33 C 625.96 237.20 625.01 238.99 622.03 241.59 C 623.45 238.68 625.01 236.01 626.84 233.33 Z" fill="#3bafaf" />
<path d="M 414.68 237.17 C 413.38 241.80 413.92 246.27 413.88 251.00 C 413.88 272.33 413.91 293.67 413.90 315.00 C 413.92 317.20 414.03 319.39 414.19 321.58 C 413.70 341.04 414.03 360.53 413.98 380.00 C 414.07 386.84 413.76 393.73 414.20 400.56 C 413.87 412.34 414.00 424.14 414.03 435.93 C 414.05 440.83 413.82 445.69 414.20 450.59 C 413.95 456.72 414.10 462.86 413.88 469.00 C 413.85 471.41 413.63 473.64 414.86 475.82 C 414.24 475.50 413.62 475.17 413.00 474.84 C 412.98 395.96 413.07 316.97 413.01 238.11 C 413.57 237.79 414.12 237.48 414.68 237.17 Z" fill="#5d9ca3" />
<path d="M 824.35 237.13 C 825.82 238.39 826.35 238.87 826.22 240.97 C 826.20 317.98 826.25 394.99 826.23 471.99 C 826.20 473.50 826.12 475.01 825.99 476.51 C 824.08 472.98 824.95 468.42 824.59 464.40 C 824.72 456.06 825.16 447.66 824.64 439.33 C 824.92 427.22 824.89 415.11 824.96 403.00 C 824.93 397.42 825.18 391.97 824.68 386.40 C 824.94 369.61 824.94 352.80 825.08 336.00 C 825.18 331.45 825.34 326.94 824.79 322.40 C 824.84 308.60 825.36 294.81 825.18 281.00 C 825.05 274.99 825.59 269.32 824.88 263.43 C 824.92 259.62 824.97 255.81 824.95 252.00 C 824.89 246.92 825.64 242.14 824.35 237.13 Z" fill="#088a92" />
<path d="M 566.00 239.85 C 565.42 243.50 564.62 247.02 563.39 250.51 C 557.99 268.14 552.38 285.81 547.09 303.47 C 546.57 304.95 545.79 306.20 545.05 307.57 C 549.20 292.44 554.27 277.57 558.71 262.52 C 561.42 255.03 562.99 247.24 566.00 239.85 Z" fill="#4eb0b2" />
<path d="M 617.73 248.91 C 617.98 249.59 618.23 250.27 618.48 250.96 C 619.26 251.74 620.04 252.53 620.82 253.31 C 620.31 253.79 619.81 254.27 619.30 254.75 C 620.39 254.96 621.49 255.18 622.58 255.39 C 623.50 257.08 624.41 258.77 625.32 260.46 C 623.81 261.59 622.51 262.77 621.28 264.20 C 623.41 265.93 625.59 267.69 626.99 270.10 C 626.77 272.39 625.72 274.72 624.91 276.86 C 625.42 277.69 625.93 278.52 626.43 279.34 C 621.27 292.26 615.31 304.86 610.19 317.80 C 609.77 316.96 609.34 316.12 608.91 315.28 C 608.02 315.72 607.14 316.16 606.25 316.61 C 605.66 315.91 605.08 315.21 604.50 314.52 C 604.02 314.91 603.55 315.30 603.07 315.69 C 602.13 313.28 601.18 310.87 600.22 308.47 C 599.75 308.18 599.28 307.89 598.81 307.60 C 598.35 305.17 597.98 302.41 596.73 300.24 C 595.13 300.18 593.48 300.34 591.88 300.46 C 591.47 299.25 591.06 298.04 590.64 296.83 C 596.86 285.92 602.94 274.95 609.26 264.10 C 612.43 261.90 613.23 259.19 614.04 255.60 C 615.23 253.35 616.46 251.12 617.73 248.91 Z" fill="#00c4c9" />
<path d="M 614.04 255.60 C 613.23 259.19 612.43 261.90 609.26 264.10 C 610.66 261.11 612.22 258.35 614.04 255.60 Z" fill="#25adae" />
<path d="M 782.58 259.19 C 784.01 259.98 785.47 260.06 786.13 261.73 C 786.05 273.82 786.15 285.91 786.11 298.00 C 786.06 305.53 785.67 313.08 786.23 320.60 C 785.70 364.30 786.14 408.02 786.08 451.72 L 785.03 452.38 C 784.93 388.66 785.20 324.87 784.95 261.16 C 784.16 260.50 783.37 259.84 782.58 259.19 Z" fill="#93b9bc" />
<path d="M 786.13 261.73 C 787.01 265.19 786.83 268.47 786.83 272.00 C 786.79 278.34 787.23 284.66 787.10 291.00 C 787.04 294.06 787.16 297.07 787.51 300.11 C 788.24 291.36 787.62 282.49 788.47 273.74 C 788.86 276.08 789.07 278.44 789.22 280.81 C 790.68 282.59 792.25 283.87 792.38 286.35 C 792.73 289.74 793.75 292.75 795.26 295.79 C 796.87 299.36 799.96 301.49 800.82 305.48 C 801.93 305.77 803.22 305.92 804.20 306.52 C 805.21 307.81 805.84 309.43 806.57 310.89 C 806.85 309.97 807.14 309.05 807.42 308.12 C 808.07 309.72 808.70 311.31 809.34 312.91 C 810.54 311.53 811.75 310.16 812.95 308.78 C 813.48 309.21 814.02 309.64 814.56 310.06 C 814.45 310.99 814.35 311.92 814.24 312.84 C 815.00 312.51 815.75 312.17 816.50 311.83 C 816.36 310.71 816.23 309.58 816.09 308.46 C 817.68 308.65 819.27 308.85 820.86 309.06 C 819.77 308.12 818.69 307.18 817.63 306.22 C 819.73 306.33 821.73 306.59 823.78 307.03 C 824.02 312.26 823.51 317.26 824.79 322.40 C 825.34 326.94 825.18 331.45 825.08 336.00 C 824.94 352.80 824.94 369.61 824.68 386.40 C 823.10 379.47 824.35 372.95 823.81 365.97 C 823.93 363.48 821.31 362.04 819.77 360.44 C 818.94 361.78 818.49 362.99 818.14 364.52 C 816.19 365.43 814.30 366.50 812.33 367.34 C 811.25 366.75 810.26 366.00 809.26 365.30 C 809.11 366.08 808.97 366.86 808.82 367.64 C 805.80 364.51 802.15 363.24 800.04 359.10 C 800.61 358.11 801.19 357.12 801.76 356.14 C 800.72 356.36 799.67 356.58 798.63 356.80 C 798.22 355.29 797.80 353.77 797.38 352.26 C 796.61 352.35 795.83 352.45 795.06 352.55 C 795.34 350.84 795.62 349.14 795.90 347.43 C 795.13 347.23 794.35 347.03 793.58 346.83 C 794.08 345.88 794.59 344.95 795.00 343.96 C 795.43 342.04 793.58 340.90 792.55 339.54 C 792.42 337.55 792.22 335.56 792.02 333.57 C 792.26 331.87 792.08 330.20 791.86 328.50 C 791.01 328.17 790.16 327.85 789.31 327.52 C 789.12 325.25 788.85 322.99 788.43 320.75 C 788.00 324.94 788.19 329.15 787.67 333.33 C 786.75 329.12 787.26 324.82 786.23 320.60 C 785.67 313.08 786.06 305.53 786.11 298.00 C 786.15 285.91 786.05 273.82 786.13 261.73 Z" fill="#01adb6" />
<path d="M 590.64 296.83 C 591.06 298.04 591.47 299.25 591.88 300.46 C 593.48 300.34 595.13 300.18 596.73 300.24 C 597.98 302.41 598.35 305.17 598.81 307.60 C 599.28 307.89 599.75 308.18 600.22 308.47 C 601.18 310.87 602.13 313.28 603.07 315.69 C 603.55 315.30 604.02 314.91 604.50 314.52 C 605.08 315.21 605.66 315.91 606.25 316.61 C 607.14 316.16 608.02 315.72 608.91 315.28 C 609.34 316.12 609.77 316.96 610.19 317.80 C 606.53 326.26 603.17 334.83 599.32 343.21 C 597.21 348.27 594.63 353.08 592.78 358.25 C 609.27 358.26 625.78 358.19 642.27 358.30 C 641.85 359.52 641.42 360.75 640.94 361.95 C 630.11 386.44 618.93 410.79 608.44 435.42 C 604.70 442.77 601.72 450.53 599.01 458.30 C 593.98 468.47 588.73 478.55 583.64 488.69 C 582.69 485.63 584.26 483.57 585.38 480.87 C 584.34 477.95 584.18 475.42 584.52 472.38 C 585.18 472.18 585.85 471.98 586.52 471.78 C 585.28 469.75 583.47 468.75 584.86 466.21 C 586.07 466.27 587.27 466.32 588.47 466.36 C 587.27 465.12 586.16 464.52 584.55 463.94 C 584.59 458.13 583.14 452.51 583.61 446.72 C 583.76 443.98 582.89 441.54 582.71 438.86 C 582.56 435.83 583.85 433.32 583.43 430.27 C 583.01 427.07 582.25 423.93 581.81 420.73 C 585.15 409.96 588.57 399.24 592.11 388.54 C 591.29 388.49 590.47 388.44 589.64 388.39 C 588.64 387.83 587.64 387.27 586.63 386.71 C 588.37 386.10 590.09 385.43 591.81 384.78 C 591.64 382.60 591.47 380.41 591.31 378.23 C 590.35 377.72 589.39 377.22 588.43 376.71 C 588.89 376.15 589.35 375.59 589.81 375.02 C 589.41 374.52 589.02 374.02 588.63 373.51 C 589.21 371.41 589.74 369.30 590.22 367.17 C 589.52 367.69 588.82 368.21 588.12 368.73 C 588.57 365.29 588.78 362.01 587.51 358.70 C 587.47 356.49 587.45 354.29 587.38 352.08 C 588.46 351.56 589.53 351.04 590.60 350.53 C 590.14 349.38 589.67 348.23 589.21 347.08 C 589.62 346.54 590.04 345.99 590.46 345.44 C 589.79 344.24 589.13 343.04 588.46 341.84 C 588.97 340.54 589.49 339.23 590.00 337.92 C 588.98 338.50 587.96 339.07 586.94 339.65 C 587.30 337.94 587.65 336.22 588.01 334.51 C 587.05 334.57 586.10 334.62 585.15 334.68 C 584.46 331.33 583.60 328.05 582.38 324.85 C 581.63 325.46 580.88 326.08 580.14 326.70 C 578.26 326.03 576.51 325.41 575.18 323.81 C 577.26 320.10 579.25 316.39 581.62 312.86 C 582.69 312.55 583.10 311.84 582.86 310.75 C 585.24 306.01 588.00 301.43 590.64 296.83 Z" fill="#01bac1" />
<path d="M 652.68 307.69 C 652.28 309.78 651.91 311.88 651.52 313.97 C 674.77 314.12 698.06 313.73 721.30 314.17 C 721.09 314.59 720.89 315.02 720.69 315.45 C 715.03 314.48 709.76 315.05 704.00 314.98 C 696.42 315.13 688.84 314.92 681.26 315.22 C 671.18 314.86 661.10 315.39 651.02 314.88 C 651.14 312.22 651.66 310.13 652.68 307.69 Z" fill="#577c81" />
<path d="M 582.86 310.75 C 583.10 311.84 582.69 312.55 581.62 312.86 C 581.47 311.82 581.89 311.12 582.86 310.75 Z" fill="#2c9498" />
<path d="M 681.26 315.22 C 688.84 314.92 696.42 315.13 704.00 314.98 C 709.76 315.05 715.03 314.48 720.69 315.45 C 715.71 323.73 710.03 331.61 704.70 339.67 C 696.80 351.98 688.50 364.04 680.34 376.19 C 678.99 375.47 677.66 374.71 676.35 373.93 C 676.70 373.12 677.06 372.31 677.42 371.50 C 676.14 370.34 674.88 369.16 673.61 368.00 C 675.00 366.88 676.37 365.76 677.76 364.65 C 676.38 363.74 675.01 362.82 673.63 361.91 C 674.99 360.28 676.50 358.93 678.20 357.67 C 676.52 356.94 674.85 356.19 673.18 355.44 C 674.34 354.53 675.50 353.61 676.67 352.70 C 676.62 351.77 676.56 350.85 676.51 349.92 C 677.36 350.54 678.20 351.15 679.05 351.76 C 678.96 350.95 678.87 350.15 678.78 349.34 C 677.09 349.07 675.40 348.81 673.70 348.55 C 675.52 347.16 677.33 345.77 679.15 344.37 C 678.07 344.41 676.98 344.46 675.90 344.50 C 676.51 343.71 677.11 342.93 677.71 342.14 C 676.55 342.05 675.39 341.97 674.22 341.90 C 675.54 340.89 676.80 339.82 677.96 338.63 C 676.31 337.49 674.65 336.36 673.00 335.23 C 673.38 334.71 673.76 334.18 674.14 333.65 C 674.09 332.52 674.07 331.41 674.10 330.28 C 673.89 329.57 673.65 328.83 673.43 328.13 C 674.51 327.36 675.59 326.58 676.67 325.81 C 674.60 323.22 673.19 320.30 671.76 317.33 C 664.75 317.15 657.97 317.33 651.00 316.54 C 661.00 315.58 671.31 316.53 681.26 315.22 Z" fill="#0194a0" />
<path d="M 786.23 320.60 C 787.26 324.82 786.75 329.12 787.67 333.33 C 788.19 329.15 788.00 324.94 788.43 320.75 C 788.85 322.99 789.12 325.25 789.31 327.52 C 790.16 327.85 791.01 328.17 791.86 328.50 C 792.08 330.20 792.26 331.87 792.02 333.57 C 792.22 335.56 792.42 337.55 792.55 339.54 C 793.58 340.90 795.43 342.04 795.00 343.96 C 794.59 344.95 794.08 345.88 793.58 346.83 C 794.35 347.03 795.13 347.23 795.90 347.43 C 795.62 349.14 795.34 350.84 795.06 352.55 C 795.83 352.45 796.61 352.35 797.38 352.26 C 797.80 353.77 798.22 355.29 798.63 356.80 C 799.67 356.58 800.72 356.36 801.76 356.14 C 801.19 357.12 800.61 358.11 800.04 359.10 C 802.15 363.24 805.80 364.51 808.82 367.64 C 808.97 366.86 809.11 366.08 809.26 365.30 C 810.26 366.00 811.25 366.75 812.33 367.34 C 814.30 366.50 816.19 365.43 818.14 364.52 C 818.49 362.99 818.94 361.78 819.77 360.44 C 821.31 362.04 823.93 363.48 823.81 365.97 C 824.35 372.95 823.10 379.47 824.68 386.40 C 825.18 391.97 824.93 397.42 824.96 403.00 C 824.89 415.11 824.92 427.22 824.64 439.33 C 824.22 436.52 823.84 433.70 823.63 430.86 C 821.19 430.50 818.90 430.93 816.53 431.54 C 816.23 433.53 816.46 436.04 814.20 436.93 C 812.00 437.79 810.64 438.24 809.34 440.41 C 808.74 440.14 808.13 439.87 807.53 439.60 C 807.11 439.91 806.69 440.21 806.27 440.52 C 805.75 439.54 805.22 438.55 804.70 437.56 C 801.36 437.75 799.27 437.39 796.26 435.79 C 796.28 434.67 796.30 433.55 796.32 432.43 C 795.69 431.84 795.06 431.25 794.44 430.66 C 794.54 429.27 794.72 427.83 794.60 426.43 C 793.55 425.14 792.23 424.04 791.00 422.92 C 790.31 423.95 789.62 424.98 788.93 426.01 C 789.03 424.79 789.19 423.59 789.39 422.39 C 790.56 421.56 791.90 420.96 793.19 420.34 C 791.83 419.98 790.47 419.63 789.11 419.28 C 789.04 416.07 789.12 412.81 788.75 409.62 L 788.25 408.83 C 787.73 416.53 788.06 424.29 787.95 432.00 C 787.85 436.37 786.91 440.62 786.97 445.00 C 786.85 447.19 787.26 449.82 786.08 451.72 C 786.14 408.02 785.70 364.30 786.23 320.60 Z" fill="#01a2ac" />
<path d="M 414.19 321.58 C 415.19 325.68 415.15 329.79 415.15 333.98 C 415.63 333.08 416.10 332.18 416.57 331.28 C 416.95 332.20 417.33 333.11 417.71 334.03 C 418.46 330.99 418.35 328.03 418.15 324.94 C 419.04 326.60 420.28 328.33 420.68 330.18 C 420.87 333.29 419.79 336.77 420.42 339.80 C 421.15 342.44 422.39 344.95 423.37 347.50 C 422.86 348.91 422.37 350.32 421.87 351.73 C 423.43 352.02 425.00 352.30 426.57 352.59 C 426.31 356.89 427.58 361.33 428.33 365.54 C 428.01 365.94 427.70 366.34 427.39 366.73 C 428.07 366.94 428.75 367.16 429.44 367.37 C 429.53 374.35 433.04 379.96 434.19 386.61 C 434.94 386.10 435.70 385.59 436.47 385.09 C 436.19 386.46 435.80 387.80 435.41 389.14 C 436.15 390.65 437.07 392.15 437.55 393.77 C 437.47 394.84 437.02 395.94 436.70 396.96 C 436.80 397.53 436.90 398.09 437.01 398.65 C 437.79 398.14 438.57 397.64 439.36 397.13 C 439.80 399.40 439.23 401.25 438.71 403.42 C 440.43 404.93 442.30 406.21 443.84 407.93 C 443.29 408.99 442.75 410.05 442.22 411.11 C 443.32 411.25 444.42 411.40 445.53 411.54 C 446.08 412.41 446.63 413.29 447.19 414.16 C 446.99 414.79 446.82 415.43 446.66 416.06 C 447.69 417.11 449.11 417.85 450.35 418.63 C 450.67 420.08 450.98 421.54 451.28 423.00 C 451.76 422.01 452.25 421.02 452.73 420.03 C 452.78 423.11 452.97 426.17 453.47 429.21 C 454.60 422.90 452.88 416.34 455.04 410.42 C 455.91 423.26 455.54 436.22 455.40 449.08 C 455.44 450.24 455.48 451.48 455.78 452.61 C 456.75 453.20 457.75 453.74 458.78 454.22 C 459.09 455.20 459.39 456.18 459.70 457.16 C 458.37 456.73 457.04 456.30 455.70 455.89 C 453.82 456.28 452.21 455.72 450.48 455.06 C 450.47 453.89 450.46 452.71 450.45 451.54 C 448.71 450.47 446.98 449.40 445.25 448.32 C 444.59 449.18 443.93 450.04 443.27 450.91 C 442.00 449.37 441.65 448.66 441.43 446.66 C 441.15 446.51 440.87 446.36 440.59 446.20 C 439.06 443.34 438.07 442.88 435.05 442.15 C 436.02 441.18 436.99 440.20 437.96 439.22 C 435.47 436.43 433.15 433.55 430.95 430.53 C 430.12 426.35 427.87 423.01 426.25 418.92 C 425.03 418.20 423.48 417.65 422.51 416.60 C 421.44 414.82 420.79 412.71 420.12 410.75 C 419.22 410.37 418.32 409.98 417.42 409.60 C 417.84 408.78 418.26 407.96 418.67 407.13 C 417.46 404.48 416.96 401.69 416.41 398.85 L 416.29 399.61 C 415.76 403.60 416.04 407.71 415.93 411.73 L 415.20 411.77 C 415.29 407.96 415.17 404.27 414.20 400.56 C 413.76 393.73 414.07 386.84 413.98 380.00 C 414.03 360.53 413.70 341.04 414.19 321.58 Z" fill="#029faa" />
<path d="M 575.18 323.81 C 576.51 325.41 578.26 326.03 580.14 326.70 C 580.88 326.08 581.63 325.46 582.38 324.85 C 583.60 328.05 584.46 331.33 585.15 334.68 C 586.10 334.62 587.05 334.57 588.01 334.51 C 587.65 336.22 587.30 337.94 586.94 339.65 C 587.96 339.07 588.98 338.50 590.00 337.92 C 589.49 339.23 588.97 340.54 588.46 341.84 C 589.13 343.04 589.79 344.24 590.46 345.44 C 590.04 345.99 589.62 346.54 589.21 347.08 C 589.67 348.23 590.14 349.38 590.60 350.53 C 589.53 351.04 588.46 351.56 587.38 352.08 C 587.45 354.29 587.47 356.49 587.51 358.70 C 588.78 362.01 588.57 365.29 588.12 368.73 C 588.82 368.21 589.52 367.69 590.22 367.17 C 589.74 369.30 589.21 371.41 588.63 373.51 C 589.02 374.02 589.41 374.52 589.81 375.02 C 589.35 375.59 588.89 376.15 588.43 376.71 C 589.39 377.22 590.35 377.72 591.31 378.23 C 591.47 380.41 591.64 382.60 591.81 384.78 C 590.09 385.43 588.37 386.10 586.63 386.71 C 580.38 387.11 573.95 387.03 567.71 386.47 C 571.41 385.33 576.30 386.89 579.24 384.39 C 577.98 382.12 576.77 379.82 575.62 377.49 C 575.00 377.95 574.37 378.41 573.75 378.88 C 574.63 374.65 573.18 371.26 571.17 367.63 C 572.01 367.44 572.85 367.25 573.68 367.06 C 572.89 365.34 571.97 363.59 571.50 361.75 C 571.92 360.62 572.76 359.63 573.41 358.63 C 572.75 357.47 572.09 356.31 571.41 355.16 C 572.17 354.59 572.93 354.03 573.69 353.47 C 572.79 351.92 571.90 350.37 571.01 348.82 C 571.76 348.11 572.52 347.40 573.27 346.68 C 571.81 344.26 570.80 341.67 569.86 339.01 C 568.04 340.47 567.07 344.11 564.37 342.07 C 567.89 335.93 571.62 329.92 575.18 323.81 Z" fill="#01b0b8" />
<path d="M 569.86 339.01 C 570.80 341.67 571.81 344.26 573.27 346.68 C 572.52 347.40 571.76 348.11 571.01 348.82 C 571.90 350.37 572.79 351.92 573.69 353.47 C 572.93 354.03 572.17 354.59 571.41 355.16 C 572.09 356.31 572.75 357.47 573.41 358.63 C 572.76 359.63 571.92 360.62 571.50 361.75 C 571.97 363.59 572.89 365.34 573.68 367.06 C 572.85 367.25 572.01 367.44 571.17 367.63 C 573.18 371.26 574.63 374.65 573.75 378.88 C 574.37 378.41 575.00 377.95 575.62 377.49 C 576.77 379.82 577.98 382.12 579.24 384.39 C 576.30 386.89 571.41 385.33 567.71 386.47 C 573.95 387.03 580.38 387.11 586.63 386.71 C 587.64 387.27 588.64 387.83 589.64 388.39 C 571.63 388.49 553.59 388.66 535.58 388.37 C 545.88 373.41 555.01 357.63 564.37 342.07 C 567.07 344.11 568.04 340.47 569.86 339.01 Z" fill="#01a6af" />
<path d="M 605.77 347.35 C 606.83 348.33 607.38 349.05 608.96 348.97 C 623.60 349.03 638.36 348.98 653.00 349.00 C 655.01 348.98 656.82 349.36 658.70 350.03 C 653.84 350.47 648.89 350.22 644.00 350.28 C 630.90 350.23 617.80 350.35 604.70 350.22 C 605.04 349.26 605.40 348.30 605.77 347.35 Z" fill="#0c5356" />
<path d="M 724.69 356.04 C 722.00 364.45 717.69 372.21 714.77 380.56 C 705.47 403.15 696.00 425.69 687.17 448.47 C 680.93 463.62 675.49 479.07 669.17 494.19 C 667.77 490.05 668.36 486.26 669.54 482.18 C 668.61 482.32 667.67 482.46 666.73 482.59 C 667.17 479.91 668.22 478.15 669.85 476.05 C 669.36 475.44 668.87 474.82 668.38 474.20 C 669.11 472.67 669.75 471.12 670.33 469.52 C 669.24 469.58 668.15 469.64 667.06 469.69 C 666.87 468.54 666.61 467.37 666.55 466.20 C 667.16 464.94 668.12 463.82 668.94 462.69 C 667.81 460.48 666.47 458.61 664.83 456.76 C 664.52 454.47 664.05 452.29 662.94 450.25 C 661.72 451.49 660.55 452.78 659.37 454.06 L 658.53 451.47 C 666.50 439.02 675.26 427.08 683.64 414.90 C 684.71 414.61 685.14 413.91 684.93 412.82 C 697.93 393.72 710.77 374.46 724.69 356.04 Z" fill="#018d99" />
<path d="M 644.02 375.68 C 643.92 378.24 643.78 380.57 642.56 382.87 C 643.43 383.09 644.31 383.32 645.19 383.54 C 644.13 384.84 643.05 386.11 641.98 387.40 C 642.59 387.47 643.20 387.54 643.80 387.61 C 644.16 389.76 644.65 391.82 645.35 393.88 C 644.62 394.03 643.89 394.18 643.17 394.34 C 644.33 396.35 645.49 398.36 646.63 400.39 C 645.59 401.34 644.55 402.29 643.51 403.24 C 645.06 404.33 646.67 404.90 648.48 405.38 C 647.67 407.15 646.88 408.94 646.10 410.73 C 646.97 411.90 647.92 413.09 648.63 414.37 C 648.70 417.73 647.18 420.30 649.16 423.49 C 642.39 434.20 635.19 444.64 628.23 455.21 C 598.63 499.67 569.54 544.38 539.69 588.69 C 535.86 594.20 532.62 600.10 528.76 605.58 C 531.95 589.57 536.95 573.80 541.19 558.03 C 543.54 550.54 545.23 542.87 547.76 535.44 C 547.92 539.93 546.03 543.60 544.98 547.84 C 544.11 551.28 543.20 554.70 542.12 558.08 C 540.42 563.31 539.85 568.76 537.89 573.93 C 536.73 577.05 536.22 579.70 536.23 583.04 C 538.01 578.67 539.58 574.31 542.17 570.32 C 552.03 552.01 561.79 533.58 570.88 514.88 C 575.21 506.18 579.70 497.58 583.64 488.69 C 588.73 478.55 593.98 468.47 599.01 458.30 C 606.67 443.51 615.01 428.63 623.04 414.03 C 629.67 401.06 636.73 388.29 644.02 375.68 Z" fill="#017f8b" />
<path d="M 416.29 399.61 L 416.41 398.85 C 416.96 401.69 417.46 404.48 418.67 407.13 C 418.26 407.96 417.84 408.78 417.42 409.60 C 418.32 409.98 419.22 410.37 420.12 410.75 C 420.79 412.71 421.44 414.82 422.51 416.60 C 423.48 417.65 425.03 418.20 426.25 418.92 C 427.87 423.01 430.12 426.35 430.95 430.53 C 433.15 433.55 435.47 436.43 437.96 439.22 C 436.99 440.20 436.02 441.18 435.05 442.15 C 438.07 442.88 439.06 443.34 440.59 446.20 C 440.87 446.36 441.15 446.51 441.43 446.66 C 441.65 448.66 442.00 449.37 443.27 450.91 C 443.93 450.04 444.59 449.18 445.25 448.32 C 446.98 449.40 448.71 450.47 450.45 451.54 C 450.46 452.71 450.47 453.89 450.48 455.06 C 452.21 455.72 453.82 456.28 455.70 455.89 C 457.04 456.30 458.37 456.73 459.70 457.16 C 459.39 456.18 459.09 455.20 458.78 454.22 C 463.73 456.49 468.46 459.15 473.22 461.78 C 492.69 472.41 512.32 482.70 531.93 493.04 C 533.44 494.13 535.53 494.48 534.67 496.81 C 532.09 506.54 529.08 516.15 526.37 525.84 C 524.79 522.94 522.64 520.77 522.07 517.40 C 521.50 516.79 520.93 516.19 520.36 515.58 C 520.42 514.79 520.49 513.99 520.55 513.20 C 518.31 514.31 516.53 514.72 514.02 514.76 C 512.02 510.41 506.98 510.37 506.38 505.75 C 503.87 504.12 501.23 503.05 498.37 502.22 C 498.13 503.07 497.89 503.92 497.65 504.77 C 495.55 502.30 494.02 499.78 490.80 498.67 C 490.58 498.11 490.36 497.55 490.15 496.99 C 487.92 495.64 485.85 494.46 483.19 494.26 C 482.07 491.86 481.23 489.37 480.45 486.84 C 480.21 488.53 479.96 490.22 479.71 491.90 C 479.33 491.16 478.95 490.41 478.58 489.66 C 478.04 489.56 477.50 489.45 476.96 489.34 C 477.49 488.72 478.03 488.09 478.56 487.46 C 473.86 486.21 471.73 482.72 468.64 479.36 C 467.74 479.40 466.85 479.44 465.95 479.49 C 466.58 478.61 467.21 477.73 467.84 476.86 C 466.27 476.63 464.59 476.49 463.10 475.93 C 462.58 475.08 462.21 474.12 461.81 473.21 C 460.97 472.29 460.10 471.40 459.23 470.51 C 457.61 469.96 455.99 469.42 454.37 468.87 C 454.74 468.41 455.12 467.94 455.49 467.47 C 454.36 466.43 453.22 465.39 452.07 464.36 C 449.18 464.59 447.39 463.70 445.00 462.21 C 444.26 462.82 443.52 463.42 442.79 464.03 C 441.96 463.32 441.13 462.62 440.30 461.91 C 440.69 461.43 441.09 460.95 441.48 460.47 C 436.28 458.06 432.87 453.91 429.43 449.50 C 428.22 447.82 428.04 444.93 426.40 443.67 C 424.61 443.30 422.91 443.14 421.27 442.25 C 421.75 441.15 422.27 440.03 422.63 438.89 C 421.76 436.62 420.46 434.50 419.26 432.39 C 418.25 431.95 417.23 431.55 416.20 431.17 C 416.02 433.41 415.92 435.65 415.82 437.91 C 415.22 437.25 414.63 436.59 414.03 435.93 C 414.00 424.14 413.87 412.34 414.20 400.56 C 415.17 404.27 415.29 407.96 415.20 411.77 L 415.93 411.73 C 416.04 407.71 415.76 403.60 416.29 399.61 Z" fill="#0197a3" />
<path d="M 788.25 408.83 L 788.75 409.62 C 789.12 412.81 789.04 416.07 789.11 419.28 C 790.47 419.63 791.83 419.98 793.19 420.34 C 791.90 420.96 790.56 421.56 789.39 422.39 C 789.19 423.59 789.03 424.79 788.93 426.01 C 789.62 424.98 790.31 423.95 791.00 422.92 C 792.23 424.04 793.55 425.14 794.60 426.43 C 794.72 427.83 794.54 429.27 794.44 430.66 C 795.06 431.25 795.69 431.84 796.32 432.43 C 796.30 433.55 796.28 434.67 796.26 435.79 C 799.27 437.39 801.36 437.75 804.70 437.56 C 805.22 438.55 805.75 439.54 806.27 440.52 C 806.69 440.21 807.11 439.91 807.53 439.60 C 808.13 439.87 808.74 440.14 809.34 440.41 C 810.64 438.24 812.00 437.79 814.20 436.93 C 816.46 436.04 816.23 433.53 816.53 431.54 C 818.90 430.93 821.19 430.50 823.63 430.86 C 823.84 433.70 824.22 436.52 824.64 439.33 C 825.16 447.66 824.72 456.06 824.59 464.40 C 823.64 459.87 823.75 455.35 823.69 450.75 C 821.31 451.49 819.48 452.50 817.50 453.99 C 817.56 454.92 817.62 455.85 817.68 456.77 C 814.50 457.12 811.43 457.84 808.33 458.56 C 805.07 459.43 802.23 457.20 799.02 457.14 C 796.57 457.16 794.02 457.61 791.59 457.95 C 791.53 457.48 791.48 457.01 791.43 456.54 C 790.26 456.21 789.08 455.89 787.90 455.59 C 786.01 456.22 784.47 456.33 782.48 456.19 C 782.54 455.33 782.61 454.47 782.67 453.61 C 783.46 453.21 784.25 452.80 785.03 452.38 L 786.08 451.72 C 787.26 449.82 786.85 447.19 786.97 445.00 C 786.91 440.62 787.85 436.37 787.95 432.00 C 788.06 424.29 787.73 416.53 788.25 408.83 Z" fill="#0198a4" />
<path d="M 684.93 412.82 C 685.14 413.91 684.71 414.61 683.64 414.90 C 683.51 413.87 683.94 413.17 684.93 412.82 Z" fill="#468183" />
<path d="M 581.81 420.73 C 582.25 423.93 583.01 427.07 583.43 430.27 C 583.85 433.32 582.56 435.83 582.71 438.86 C 582.89 441.54 583.76 443.98 583.61 446.72 C 583.14 452.51 584.59 458.13 584.55 463.94 C 586.16 464.52 587.27 465.12 588.47 466.36 C 587.27 466.32 586.07 466.27 584.86 466.21 C 583.47 468.75 585.28 469.75 586.52 471.78 C 585.85 471.98 585.18 472.18 584.52 472.38 C 584.18 475.42 584.34 477.95 585.38 480.87 C 584.26 483.57 582.69 485.63 583.64 488.69 C 579.70 497.58 575.21 506.18 570.88 514.88 C 561.79 533.58 552.03 552.01 542.17 570.32 C 539.58 574.31 538.01 578.67 536.23 583.04 C 536.22 579.70 536.73 577.05 537.89 573.93 C 539.85 568.76 540.42 563.31 542.12 558.08 C 543.20 554.70 544.11 551.28 544.98 547.84 C 546.03 543.60 547.92 539.93 547.76 535.44 C 548.93 529.94 550.69 524.64 552.27 519.26 C 561.70 486.25 571.64 453.51 581.81 420.73 Z" fill="#01aeb7" />
<path d="M 416.20 431.17 C 417.23 431.55 418.25 431.95 419.26 432.39 C 420.46 434.50 421.76 436.62 422.63 438.89 C 422.27 440.03 421.75 441.15 421.27 442.25 C 422.91 443.14 424.61 443.30 426.40 443.67 C 428.04 444.93 428.22 447.82 429.43 449.50 C 432.87 453.91 436.28 458.06 441.48 460.47 C 441.09 460.95 440.69 461.43 440.30 461.91 C 441.13 462.62 441.96 463.32 442.79 464.03 C 443.52 463.42 444.26 462.82 445.00 462.21 C 447.39 463.70 449.18 464.59 452.07 464.36 C 453.22 465.39 454.36 466.43 455.49 467.47 C 455.12 467.94 454.74 468.41 454.37 468.87 C 455.99 469.42 457.61 469.96 459.23 470.51 C 460.10 471.40 460.97 472.29 461.81 473.21 C 462.21 474.12 462.58 475.08 463.10 475.93 C 464.59 476.49 466.27 476.63 467.84 476.86 C 467.21 477.73 466.58 478.61 465.95 479.49 C 466.85 479.44 467.74 479.40 468.64 479.36 C 471.73 482.72 473.86 486.21 478.56 487.46 C 478.03 488.09 477.49 488.72 476.96 489.34 C 477.50 489.45 478.04 489.56 478.58 489.66 C 478.95 490.41 479.33 491.16 479.71 491.90 C 479.96 490.22 480.21 488.53 480.45 486.84 C 481.23 489.37 482.07 491.86 483.19 494.26 C 485.85 494.46 487.92 495.64 490.15 496.99 C 490.36 497.55 490.58 498.11 490.80 498.67 C 494.02 499.78 495.55 502.30 497.65 504.77 C 497.89 503.92 498.13 503.07 498.37 502.22 C 501.23 503.05 503.87 504.12 506.38 505.75 C 506.98 510.37 512.02 510.41 514.02 514.76 C 516.53 514.72 518.31 514.31 520.55 513.20 C 520.49 513.99 520.42 514.79 520.36 515.58 C 520.93 516.19 521.50 516.79 522.07 517.40 C 522.64 520.77 524.79 522.94 526.37 525.84 C 525.59 528.83 524.66 531.76 523.69 534.70 C 503.43 523.59 482.98 512.78 462.75 501.62 C 462.58 499.42 462.96 497.37 461.48 495.52 C 460.22 493.77 459.23 492.07 458.37 490.09 C 458.19 490.94 458.00 491.79 457.82 492.64 C 454.63 489.63 451.91 486.20 448.81 483.14 C 444.94 480.59 440.89 478.04 436.56 476.33 C 433.83 472.30 429.87 469.86 426.56 466.39 C 425.14 464.99 423.41 464.30 421.66 463.39 C 420.12 460.67 418.43 458.31 416.28 456.05 C 416.11 457.61 415.94 459.18 415.78 460.75 L 415.16 460.75 C 415.23 457.26 414.98 454.00 414.20 450.59 C 413.82 445.69 414.05 440.83 414.03 435.93 C 414.63 436.59 415.22 437.25 415.82 437.91 C 415.92 435.65 416.02 433.41 416.20 431.17 Z" fill="#018e9a" />
<path d="M 662.94 450.25 C 664.05 452.29 664.52 454.47 664.83 456.76 C 666.47 458.61 667.81 460.48 668.94 462.69 C 668.12 463.82 667.16 464.94 666.55 466.20 C 666.61 467.37 666.87 468.54 667.06 469.69 C 668.15 469.64 669.24 469.58 670.33 469.52 C 669.75 471.12 669.11 472.67 668.38 474.20 C 668.87 474.82 669.36 475.44 669.85 476.05 C 668.22 478.15 667.17 479.91 666.73 482.59 C 667.67 482.46 668.61 482.32 669.54 482.18 C 668.36 486.26 667.77 490.05 669.17 494.19 C 665.37 504.17 661.42 514.08 657.59 524.03 C 666.21 518.29 675.59 513.74 684.47 508.41 C 701.93 498.86 719.13 488.88 736.59 479.35 C 735.77 482.87 733.41 484.91 731.23 487.62 C 731.97 488.26 732.72 488.90 733.47 489.53 C 733.53 490.25 733.59 490.97 733.65 491.69 C 734.26 491.89 734.87 492.09 735.47 492.29 C 735.39 493.04 733.75 495.21 734.99 495.36 C 737.68 494.21 740.04 493.24 743.04 493.14 C 742.55 493.97 742.05 494.80 741.56 495.62 C 741.72 496.31 741.87 497.00 742.03 497.69 C 742.73 497.17 743.43 496.65 744.12 496.14 C 746.71 497.50 748.03 498.95 750.99 497.55 C 751.16 499.71 751.34 501.88 751.50 504.04 C 752.33 502.66 753.16 501.28 754.00 499.90 C 754.58 500.28 755.17 500.67 755.76 501.05 C 755.34 501.54 754.92 502.03 754.50 502.52 C 757.78 503.71 757.61 504.63 758.50 507.77 C 759.37 506.72 760.25 505.67 761.13 504.62 C 760.43 504.56 759.73 504.50 759.03 504.44 C 759.08 503.60 759.12 502.75 759.16 501.90 C 760.75 502.24 762.81 501.67 763.70 503.32 C 765.54 505.35 761.74 508.18 764.69 509.43 C 764.13 509.98 763.55 510.52 762.95 511.05 C 735.33 526.31 707.94 541.32 680.29 556.67 C 678.41 555.52 676.56 554.35 674.73 553.13 C 673.84 554.00 672.95 554.87 672.06 555.74 C 670.48 555.30 668.86 554.71 667.22 554.56 C 666.22 555.06 665.29 555.72 664.35 556.32 C 663.41 555.90 662.48 555.47 661.54 555.05 C 661.52 555.53 661.50 556.01 661.48 556.49 C 660.50 556.66 659.06 556.46 658.33 557.22 C 658.27 558.49 658.33 559.75 658.37 561.02 C 657.57 560.95 656.77 560.88 655.97 560.81 C 655.64 558.91 655.51 557.07 655.54 555.14 C 655.17 554.83 654.79 554.52 654.42 554.21 C 653.66 554.62 652.89 555.00 652.11 555.36 C 650.61 554.77 649.21 553.85 647.82 553.05 C 647.15 554.15 646.42 555.28 645.73 556.40 C 647.13 558.77 647.04 559.48 646.13 562.03 C 644.86 561.09 643.50 560.18 642.37 559.07 C 641.33 558.23 641.52 556.42 641.25 555.20 C 640.60 555.33 639.94 555.46 639.29 555.59 C 640.02 551.01 639.68 546.75 641.26 542.35 C 640.34 540.20 639.69 537.66 638.27 535.79 C 636.61 534.76 634.48 534.39 632.62 533.86 C 632.50 534.68 632.39 535.51 632.27 536.34 C 631.47 535.28 630.67 534.22 629.88 533.16 C 630.98 531.68 632.05 530.19 633.09 528.66 C 632.15 528.87 631.21 529.05 630.27 529.25 C 629.72 528.77 629.17 528.28 628.62 527.80 C 628.94 526.54 629.62 525.10 629.48 523.80 C 628.91 522.43 627.98 521.19 627.19 519.94 C 627.28 519.07 627.37 518.19 627.46 517.32 C 626.76 517.09 626.05 516.86 625.35 516.63 C 626.46 514.53 627.57 512.43 628.67 510.32 C 627.85 510.09 627.03 509.86 626.20 509.62 C 627.05 508.61 627.89 507.60 628.74 506.59 C 627.98 505.47 627.22 504.34 626.43 503.24 C 625.06 504.85 623.75 506.52 622.42 508.16 C 622.22 507.09 622.02 506.02 621.83 504.96 C 633.94 487.25 646.44 469.19 658.53 451.47 L 659.37 454.06 C 660.55 452.78 661.72 451.49 662.94 450.25 Z" fill="#018290" />
<path d="M 414.20 450.59 C 414.98 454.00 415.23 457.26 415.16 460.75 L 415.78 460.75 C 415.94 459.18 416.11 457.61 416.28 456.05 C 418.43 458.31 420.12 460.67 421.66 463.39 C 423.41 464.30 425.14 464.99 426.56 466.39 C 429.87 469.86 433.83 472.30 436.56 476.33 C 440.89 478.04 444.94 480.59 448.81 483.14 C 451.91 486.20 454.63 489.63 457.82 492.64 C 458.00 491.79 458.19 490.94 458.37 490.09 C 459.23 492.07 460.22 493.77 461.48 495.52 C 462.96 497.37 462.58 499.42 462.75 501.62 C 446.68 493.23 430.90 484.27 414.86 475.82 C 413.63 473.64 413.85 471.41 413.88 469.00 C 414.10 462.86 413.95 456.72 414.20 450.59 Z" fill="#028693" />
<path d="M 823.69 450.75 C 823.75 455.35 823.64 459.87 824.59 464.40 C 824.95 468.42 824.08 472.98 825.99 476.51 C 812.63 483.54 799.37 490.78 786.19 498.16 C 784.37 498.06 781.80 497.31 780.14 498.31 C 778.82 498.89 778.77 500.41 778.27 501.59 C 774.90 503.77 772.51 504.79 768.47 505.04 C 767.00 505.79 765.91 508.24 764.69 509.43 C 761.74 508.18 765.54 505.35 763.70 503.32 C 762.81 501.67 760.75 502.24 759.16 501.90 C 759.12 502.75 759.08 503.60 759.03 504.44 C 759.73 504.50 760.43 504.56 761.13 504.62 C 760.25 505.67 759.37 506.72 758.50 507.77 C 757.61 504.63 757.78 503.71 754.50 502.52 C 754.92 502.03 755.34 501.54 755.76 501.05 C 755.17 500.67 754.58 500.28 754.00 499.90 C 753.16 501.28 752.33 502.66 751.50 504.04 C 751.34 501.88 751.16 499.71 750.99 497.55 C 748.03 498.95 746.71 497.50 744.12 496.14 C 743.43 496.65 742.73 497.17 742.03 497.69 C 741.87 497.00 741.72 496.31 741.56 495.62 C 742.05 494.80 742.55 493.97 743.04 493.14 C 740.04 493.24 737.68 494.21 734.99 495.36 C 733.75 495.21 735.39 493.04 735.47 492.29 C 734.87 492.09 734.26 491.89 733.65 491.69 C 733.59 490.97 733.53 490.25 733.47 489.53 C 732.72 488.90 731.97 488.26 731.23 487.62 C 733.41 484.91 735.77 482.87 736.59 479.35 C 751.93 470.74 767.23 462.04 782.67 453.61 C 782.61 454.47 782.54 455.33 782.48 456.19 C 784.47 456.33 786.01 456.22 787.90 455.59 C 789.08 455.89 790.26 456.21 791.43 456.54 C 791.48 457.01 791.53 457.48 791.59 457.95 C 794.02 457.61 796.57 457.16 799.02 457.14 C 802.23 457.20 805.07 459.43 808.33 458.56 C 811.43 457.84 814.50 457.12 817.68 456.77 C 817.62 455.85 817.56 454.92 817.50 453.99 C 819.48 452.50 821.31 451.49 823.69 450.75 Z" fill="#018c99" />
<path d="M 786.19 498.16 C 778.54 502.60 770.80 506.97 762.95 511.05 C 763.55 510.52 764.13 509.98 764.69 509.43 C 765.91 508.24 767.00 505.79 768.47 505.04 C 772.51 504.79 774.90 503.77 778.27 501.59 C 778.77 500.41 778.82 498.89 780.14 498.31 C 781.80 497.31 784.37 498.06 786.19 498.16 Z" fill="#388d95" />
<path d="M 626.43 503.24 C 627.22 504.34 627.98 505.47 628.74 506.59 C 627.89 507.60 627.05 508.61 626.20 509.62 C 627.03 509.86 627.85 510.09 628.67 510.32 C 627.57 512.43 626.46 514.53 625.35 516.63 C 626.05 516.86 626.76 517.09 627.46 517.32 C 627.37 518.19 627.28 519.07 627.19 519.94 C 627.98 521.19 628.91 522.43 629.48 523.80 C 629.62 525.10 628.94 526.54 628.62 527.80 C 629.17 528.28 629.72 528.77 630.27 529.25 C 631.21 529.05 632.15 528.87 633.09 528.66 C 632.05 530.19 630.98 531.68 629.88 533.16 C 630.67 534.22 631.47 535.28 632.27 536.34 C 632.39 535.51 632.50 534.68 632.62 533.86 C 634.48 534.39 636.61 534.76 638.27 535.79 C 639.69 537.66 640.34 540.20 641.26 542.35 C 639.68 546.75 640.02 551.01 639.29 555.59 C 639.94 555.46 640.60 555.33 641.25 555.20 C 641.52 556.42 641.33 558.23 642.37 559.07 C 643.50 560.18 644.86 561.09 646.13 562.03 C 647.04 559.48 647.13 558.77 645.73 556.40 C 646.42 555.28 647.15 554.15 647.82 553.05 C 649.21 553.85 650.61 554.77 652.11 555.36 C 652.89 555.00 653.66 554.62 654.42 554.21 C 654.79 554.52 655.17 554.83 655.54 555.14 C 655.51 557.07 655.64 558.91 655.97 560.81 C 656.77 560.88 657.57 560.95 658.37 561.02 C 658.33 559.75 658.27 558.49 658.33 557.22 C 659.06 556.46 660.50 556.66 661.48 556.49 C 661.50 556.01 661.52 555.53 661.54 555.05 C 662.48 555.47 663.41 555.90 664.35 556.32 C 665.29 555.72 666.22 555.06 667.22 554.56 C 668.86 554.71 670.48 555.30 672.06 555.74 C 672.95 554.87 673.84 554.00 674.73 553.13 C 676.56 554.35 678.41 555.52 680.29 556.67 C 667.05 563.97 653.82 571.28 640.55 578.54 C 635.62 581.08 631.03 584.17 626.01 586.54 C 622.81 584.83 619.64 583.07 616.41 581.43 C 617.08 579.73 618.65 576.68 617.09 575.07 C 612.99 572.75 611.00 568.72 607.37 565.86 C 608.12 564.14 610.06 561.86 609.31 559.95 C 607.92 555.37 607.18 550.74 605.10 546.38 C 603.58 545.08 602.07 543.78 600.56 542.47 C 599.81 542.45 599.06 542.42 598.32 542.40 C 598.14 541.57 597.95 540.75 597.77 539.92 C 605.99 528.40 613.65 516.51 621.83 504.96 C 622.02 506.02 622.22 507.09 622.42 508.16 C 623.75 506.52 625.06 504.85 626.43 503.24 Z" fill="#017d8a" />
<path d="M 597.77 539.92 C 597.95 540.75 598.14 541.57 598.32 542.40 C 599.06 542.42 599.81 542.45 600.56 542.47 C 602.07 543.78 603.58 545.08 605.10 546.38 C 607.18 550.74 607.92 555.37 609.31 559.95 C 610.06 561.86 608.12 564.14 607.37 565.86 C 611.00 568.72 612.99 572.75 617.09 575.07 C 618.65 576.68 617.08 579.73 616.41 581.43 C 604.89 575.43 593.43 569.28 582.10 562.94 C 587.02 555.09 592.40 547.47 597.77 539.92 Z" fill="#017784" />
</svg>